#!OML:ASF Y:\EmotionMaleHayes\Project 1\Capture day 1\Session 1\Male1.ASF
:FULLY-SPECIFIED
:DEGREES
426
root 48.5743 16.797 -0.57027 715.216 95.1394 721.289
lowerback 11.4562 2.83925 -2.53762
upperback 5.39288 3.74193 -0.266244
thorax -0.919224 1.93771 0.694219
lowerneck -22.2535 -1.90823 2.44345
upperneck 23.4402 -3.76126 1.38541
head 11.295 -1.21494 -0.483982
rclavicle -6.13251e-014 2.5842e-015
rhumerus -40.1288 23.238 -93.0636
rradius 76.8989
rwrist -19.5397
rhand -22.0619 -20.0797
rfingers 7.12502
rthumb 4.34904 -50.015
lclavicle -6.13251e-014 2.5842e-015
lhumerus -52.6539 -24.3741 96.0392
lradius 55.7398
lwrist 21.3527
lhand -29.0633 -33.8934
lfingers 7.12502
lthumb -2.4128 -3.9273
rfemur -4.58237 -2.57821 19.0382
rtibia 20.139
rfoot -10.1537 -7.80082
rtoes 11.0222
lfemur -7.43395 0.034143 -15.995
ltibia 26.8659
lfoot -10.6736 7.85292
ltoes -14.8728
427
root 48.6122 16.8089 -0.588942 715.919 95.439 721.705
lowerback 11.0754 2.74977 -2.27335
upperback 5.416 3.65958 -0.255911
thorax -0.672293 1.89731 0.588959
lowerneck -21.9022 -1.94375 2.09761
upperneck 22.9568 -3.74536 1.66357
head 11.0606 -1.22037 -0.316494
rclavicle 2.43511e-015 -9.34288e-015
rhumerus -40.5278 22.7032 -92.7311
rradius 76.1055
rwrist -19.8501
rhand -22.2732 -19.6731
rfingers 7.12502
rthumb 4.145 -49.6126
lclavicle 2.43511e-015 -9.34288e-015
lhumerus -51.5793 -24.6077 95.7447
lradius 56.0254
lwrist 21.6411
lhand -28.9945 -33.6572
lfingers 7.12502
lthumb -2.34635 -3.69037
rfemur -4.64433 -3.37978 18.8827
rtibia 20.2054
rfoot -10.3124 -7.25441
rtoes 11.1263
lfemur -7.55379 -0.154324 -16.1627
ltibia 26.6623
lfoot -10.7121 7.77336
ltoes -13.7536
428
root 48.6788 16.8144 -0.611844 717.195 95.6465 722.934
lowerback 10.908 2.68317 -1.80494
upperback 5.32197 3.61196 -0.331396
thorax -0.647014 1.87969 0.261495
lowerneck -21.7802 -2.20868 1.63895
upperneck 22.9582 -4.08759 2.16233
head 11.061 -1.34997 -0.111542
rclavicle -8.44835e-015 4.96962e-015
rhumerus -41.3666 21.8593 -92.7267
rradius 75.6469
rwrist -20.1188
rhand -22.2939 -20.0211
rfingers 7.12502
rthumb 4.125 -49.9609
lclavicle -8.44835e-015 4.96962e-015
lhumerus -51.1764 -24.8688 95.4929
lradius 56.6453
lwrist 21.9642
lhand -29.0014 -33.4156
lfingers 7.12502
lthumb -2.35308 -3.44885
rfemur -4.18431 -4.25865 18.7624
rtibia 19.9032
rfoot -10.3508 -6.47103
rtoes 11.8742
lfemur -7.12063 -0.352674 -16.2778
ltibia 26.2537
lfoot -10.7983 7.68681
ltoes -13.4714
429
root 48.71 16.8162 -0.618014 704.431 95.7357 709.971
lowerback 10.8648 2.79278 -3.12991
upperback 5.30443 3.62962 -0.663625
thorax -0.694641 1.8725 0.656334
lowerneck -22.1117 -2.17268 1.93199
upperneck 23.2402 -4.01453 1.6315
head 11.2079 -1.35105 -0.347162
rclavicle 3.80176e-014 1.98785e-016
rhumerus -41.8423 21.294 -92.5225
rradius 75.3041
rwrist -20.3004
rhand -22.1124 -20.8939
rfingers 7.12502
rthumb 4.30024 -50.8302
lclavicle 3.80176e-014 1.98785e-016
lhumerus -50.5567 -24.9906 95.2331
lradius 57.275
lwrist 22.276
lhand -29.1434 -33.3999
lfingers 7.12502
lthumb -2.49022 -3.43468
rfemur -4.21929 -4.42335 17.1382
rtibia 20.0868
rfoot -10.533 -6.19284
rtoes 11.6392
lfemur -7.04593 -0.44534 -17.9127
ltibia 26.2348
lfoot -10.9034 7.82572
ltoes -14.1581
430
root 48.7431 16.8205 -0.623627 705.174 95.6935 710.523
lowerback 10.8085 2.76793 -3.03662
upperback 5.17602 3.59618 -0.647144
thorax -0.792945 1.85535 0.624013
lowerneck -21.8579 -2.0388 2.06687
upperneck 23.0906 -3.80086 1.41508
head 11.0954 -1.27749 -0.410656
rclavicle -4.43787e-014 7.95139e-015
rhumerus -42.4667 21.0212 -92.4203
rradius 74.9539
rwrist -20.253
rhand -21.9114 -21.916
rfingers 7.12502
rthumb 4.49433 -51.8483
lclavicle -4.43787e-014 7.95139e-015
lhumerus -50.189 -25.0586 95.055
lradius 57.9029
lwrist 22.3245
lhand -29.4836 -33.5423
lfingers 7.12502
lthumb -2.81875 -3.58122
rfemur -4.33345 -4.49449 17.2159
rtibia 20.061
rfoot -10.5849 -6.22361
rtoes 10.5908
lfemur -7.1266 -0.51391 -17.8843
ltibia 26.3128
lfoot -11.054 7.87196
ltoes -14.2611
431
root 48.7898 16.8165 -0.617713 708.389 95.4339 713.556
lowerback 10.5137 2.80658 -2.79354
upperback 5.13446 3.6747 -0.550962
thorax -0.671601 1.89306 0.593058
lowerneck -21.7282 -1.91383 2.24852
upperneck 22.9077 -3.65033 1.30454
head 10.9971 -1.2142 -0.454725
rclavicle -1.18277e-014 6.95746e-015
rhumerus -42.9274 20.8382 -92.3219
rradius 74.4488
rwrist -19.895
rhand -21.8378 -22.2261
rfingers 7.12502
rthumb 4.56537 -52.1569
lclavicle -1.18277e-014 6.95746e-015
lhumerus -49.7712 -25.1236 94.7671
lradius 58.6209
lwrist 22.3151
lhand -29.705 -33.8551
lfingers 7.12502
lthumb -3.03258 -3.89689
rfemur -4.39822 -4.27266 17.7305
rtibia 20.0221
rfoot -10.7705 -6.28528
rtoes 10.3862
lfemur -7.10305 -0.432843 -17.4051
ltibia 26.2108
lfoot -11.1723 8.0049
ltoes -14.7899
432
root 48.8124 16.8061 -0.606891 713.804 95.1394 718.884
lowerback 10.4599 2.85075 -2.4354
upperback 5.17177 3.77016 -0.356094
thorax -0.598812 1.94273 0.587939
lowerneck -21.7651 -1.81356 2.39162
upperneck 22.7202 -3.52692 1.17945
head 10.9294 -1.1686 -0.504083
rclavicle -2.22639e-014 1.23246e-014
rhumerus -43.0657 20.8348 -92.0714
rradius 73.6189
rwrist -19.3669
rhand -22.0546 -21.0775
rfingers 7.12502
rthumb 4.35603 -51.0127
lclavicle -2.22639e-014 1.23246e-014
lhumerus -49.1266 -25.1776 94.4145
lradius 59.3863
lwrist 22.6232
lhand -29.3847 -34.1541
lfingers 7.12502
lthumb -2.72324 -4.19171
rfemur -4.5732 -3.82858 18.5254
rtibia 20.1884
rfoot -10.982 -6.49714
rtoes 10.5607
lfemur -7.18365 -0.219912 -16.6287
ltibia 26.27
lfoot -11.1087 8.23944
ltoes -17.2674
433
root 48.8629 16.804 -0.628265 705.707 95.4583 710.743
lowerback 10.3144 2.79679 -2.96651
upperback 5.18882 3.65575 -0.608637
thorax -0.51196 1.88009 0.644542
lowerneck -21.7924 -1.93088 1.99521
upperneck 22.7478 -3.62075 1.41343
head 10.957 -1.21504 -0.369063
rclavicle -2.25621e-014 1.03368e-014
rhumerus -43.4689 20.8218 -91.9771
rradius 72.8828
rwrist -18.7486
rhand -22.1584 -20.1263
rfingers 7.12502
rthumb 4.25581 -50.0635
lclavicle -2.25621e-014 1.03368e-014
lhumerus -48.8935 -25.382 94.2241
lradius 60.1666
lwrist 22.7723
lhand -29.175 -34.1848
lfingers 7.12502
lthumb -2.5207 -4.21992
rfemur -4.22582 -4.76111 17.2432
rtibia 20.1813
rfoot -11.1191 -5.68917
rtoes 10.7362
lfemur -6.79945 -0.564743 -17.9162
ltibia 25.9605
lfoot -11.0055 8.56277
ltoes -19.9945
434
root 48.8957 16.8099 -0.62875 704.09 95.5559 708.982
lowerback 10.3222 2.76578 -3.11415
upperback 5.07155 3.59164 -0.68783
thorax -0.639261 1.84652 0.647868
lowerneck -21.6329 -1.90388 1.92343
upperneck 22.6716 -3.56092 1.45279
head 10.901 -1.1921 -0.331472
rclavicle 2.69353e-014 1.98785e-016
rhumerus -43.9546 20.9353 -92.0247
rradius 72.3497
rwrist -18.2238
rhand -21.98 -20.1269
rfingers 7.12502
rthumb 4.4281 -50.0606
lclavicle 2.69353e-014 1.98785e-016
lhumerus -48.8832 -25.589 94.1055
lradius 60.8987
lwrist 22.5081
lhand -29.4419 -34.3406
lfingers 7.12502
lthumb -2.77847 -4.37896
rfemur -4.25792 -4.87126 16.9844
rtibia 20.051
rfoot -11.1359 -5.81496
rtoes 10.2491
lfemur -6.83705 -0.781574 -18.1881
ltibia 25.9482
lfoot -11.0195 8.8612
ltoes -21.4769
435
root 48.9326 16.8055 -0.617171 707.1 95.3286 712
lowerback 10.0623 2.75179 -2.97801
upperback 5.24023 3.60609 -0.565881
thorax -0.32305 1.85171 0.715492
lowerneck -21.7119 -1.84791 2.04401
upperneck 22.4959 -3.51723 1.41537
head 10.848 -1.17229 -0.358386
rclavicle -2.65874e-014 0
rhumerus -44.0067 21.3415 -91.9728
rradius 71.8122
rwrist -17.8939
rhand -22.0931 -19.843
rfingers 7.12502
rthumb 4.31887 -49.7789
lclavicle -2.65874e-014 0
lhumerus -48.4962 -25.6203 93.8123
lradius 61.5225
lwrist 22.1751
lhand -29.7322 -34.8529
lfingers 7.12502
lthumb -3.05881 -4.89506
rfemur -4.14843 -4.51639 17.5055
rtibia 20.0336
rfoot -11.2714 -6.18873
rtoes 9.79264
lfemur -6.7345 -0.722653 -17.6591
ltibia 25.9591
lfoot -11.1069 9.04632
ltoes -21.9715
436
root 48.9384 16.8093 -0.620397 698.303 95.5153 702.849
lowerback 10.2509 2.80231 -3.79512
upperback 4.99961 3.57533 -0.85544
thorax -0.700834 1.8302 0.857042
lowerneck -21.6862 -1.90613 1.88101
upperneck 22.5234 -3.60501 1.65344
head 10.8622 -1.19414 -0.258785
rclavicle -4.77083e-015 1.39149e-015
rhumerus -44.4375 21.4041 -92.0218
rradius 71.4492
rwrist -17.4476
rhand -22.1002 -19.525
rfingers 7.12502
rthumb 4.31206 -49.4611
lclavicle -4.77083e-015 1.39149e-015
lhumerus -48.5796 -25.6919 93.7042
lradius 62.1721
lwrist 21.8766
lhand -29.7997 -35.1421
lfingers 7.12502
lthumb -3.12403 -5.18522
rfemur -4.51889 -4.48692 16.4392
rtibia 20.1074
rfoot -11.2236 -6.15541
rtoes 10.3546
lfemur -7.17466 -0.83552 -18.7632
ltibia 26.2211
lfoot -11.225 9.26878
ltoes -22.2002
437
root 48.9807 16.802 -0.61594 709.797 95.0403 714.519
lowerback 10.3043 2.7844 -2.64708
upperback 4.99312 3.6516 -0.523642
thorax -0.697866 1.87947 0.548726
lowerneck -21.6361 -1.95432 1.6199
upperneck 22.5649 -3.62632 1.82047
head 10.8769 -1.20393 -0.158231
rclavicle -6.33129e-014 9.14409e-015
rhumerus -44.696 21.4019 -91.9275
rradius 71.1118
rwrist -17.2137
rhand -21.7086 -19.3759
rfingers 7.12502
rthumb 4.69011 -49.304
lclavicle -6.33129e-014 9.14409e-015
lhumerus -48.6328 -25.8453 93.7137
lradius 62.7232
lwrist 21.6161
lhand -29.806 -35.1848
lfingers 7.12502
lthumb -3.13013 -5.22802
rfemur -4.09835 -4.20229 17.9541
rtibia 19.8409
rfoot -11.1852 -6.29916
rtoes 9.30581
lfemur -6.83557 -0.677808 -17.2784
ltibia 26.1676
lfoot -11.3536 9.30837
ltoes -22.4899
438
root 49.0131 16.7993 -0.610834 715.691 94.5929 720.512
lowerback 10.0958 2.82229 -2.2037
upperback 5.20922 3.76147 -0.350532
thorax -0.348433 1.93837 0.487032
lowerneck -21.6757 -1.86169 1.64136
upperneck 22.3254 -3.49936 1.79955
head 10.7947 -1.15522 -0.149653
rclavicle -3.45388e-014 5.96354e-016
rhumerus -44.4269 21.5736 -91.7171
rradius 70.7111
rwrist -17.146
rhand -21.3043 -19.0844
rfingers 7.12502
rthumb 5.08051 -49.0035
lclavicle -3.45388e-014 5.96354e-016
lhumerus -48.2456 -25.8933 93.509
lradius 63.1515
lwrist 21.4154
lhand -29.8425 -35.4539
lfingers 7.12502
lthumb -3.16537 -5.49765
rfemur -4.00299 -3.69435 18.7593
rtibia 19.8635
rfoot -11.2198 -6.48626
rtoes 8.42814
lfemur -6.57006 -0.419501 -16.4534
ltibia 26.1355
lfoot -11.5032 9.4057
ltoes -22.1472
439
root 49.0312 16.8011 -0.609644 712.883 94.4369 717.608
lowerback 10.2675 2.83179 -2.4475
upperback 5.10171 3.74023 -0.448474
thorax -0.560872 1.92555 0.510982
lowerneck -21.8167 -1.90441 1.67706
upperneck 22.4105 -3.60044 1.88327
head 10.8544 -1.1836 -0.142627
rclavicle -7.95139e-015 -4.37326e-015
rhumerus -44.5692 21.6113 -91.7742
rradius 70.3721
rwrist -16.7287
rhand -21.0569 -18.954
rfingers 7.12502
rthumb 5.31939 -48.8673
lclavicle -7.95139e-015 -4.37326e-015
lhumerus -48.369 -25.8263 93.3772
lradius 63.6232
lwrist 21.2622
lhand -29.7352 -35.6764
lfingers 7.12502
lthumb -3.06176 -5.7186
rfemur -4.09273 -3.64816 18.5059
rtibia 19.9289
rfoot -11.3406 -6.40716
rtoes 7.63287
lfemur -6.58655 -0.379912 -16.6981
ltibia 26.18
lfoot -11.6347 9.46084
ltoes -22.0409
440
root 49.0508 16.8076 -0.604798 712 94.2969 716.61
lowerback 10.2428 2.84468 -2.59569
upperback 5.07782 3.74243 -0.449261
thorax -0.580922 1.92376 0.592875
lowerneck -21.8566 -1.74026 2.00063
upperneck 22.5516 -3.35478 1.39499
head 10.8967 -1.10374 -0.335535
rclavicle -3.32467e-014 9.34288e-015
rhumerus -44.5014 21.8497 -91.7441
rradius 69.8939
rwrist -16.4642
rhand -20.9714 -18.9554
rfingers 7.12502
rthumb 5.40197 -48.8665
lclavicle -3.32467e-014 9.34288e-015
lhumerus -48.2723 -25.8792 93.3232
lradius 63.8805
lwrist 21.2873
lhand -29.6162 -35.6265
lfingers 7.12502
lthumb -2.94678 -5.66712
rfemur -4.17614 -3.56959 18.4683
rtibia 19.9199
rfoot -11.6012 -6.31217
rtoes 8.76052
lfemur -6.62801 -0.370305 -16.7379
ltibia 26.2189
lfoot -11.8287 9.55235
ltoes -22.2438
